<svg xmlns="http://www.w3.org/2000/svg" width="1280" height="400" viewBox="0 0 1280 400">
<defs>
<linearGradient id="bgl" x1="0" y1="0" x2="1" y2="1"><stop offset="0" stop-color="#f3f7fd"/><stop offset="1" stop-color="#dde8f7"/></linearGradient>
<linearGradient id="scriml" x1="0" y1="0" x2="1" y2="0"><stop offset="0" stop-color="#f3f7fd" stop-opacity="1"/><stop offset="0.42" stop-color="#f3f7fd" stop-opacity="0.92"/><stop offset="0.56" stop-color="#f3f7fd" stop-opacity="0"/></linearGradient>
<linearGradient id="fadel" x1="0" y1="0" x2="1" y2="0"><stop offset="0.9" stop-color="#f3f7fd" stop-opacity="0"/><stop offset="1" stop-color="#f3f7fd" stop-opacity="0.9"/></linearGradient>
<linearGradient id="traill" gradientUnits="userSpaceOnUse" x1="700" y1="0" x2="1240" y2="0"><stop offset="0" stop-color="#1d99f3"/><stop offset="1" stop-color="#8a5cd6"/></linearGradient>
<linearGradient id="gifl" x1="0" y1="0" x2="1" y2="1"><stop offset="0" stop-color="#e0af68"/><stop offset="1" stop-color="#f7768e"/></linearGradient>
<linearGradient id="herol" x1="0" y1="0" x2="1" y2="1"><stop offset="0" stop-color="#3daee9"/><stop offset="1" stop-color="#b44fd6"/></linearGradient>
<radialGradient id="halol"><stop offset="0" stop-color="#1d99f3" stop-opacity="0.28"/><stop offset="1" stop-color="#1d99f3" stop-opacity="0"/></radialGradient>
<filter id="blurl" x="-20%" y="-60%" width="140%" height="220%"><feGaussianBlur stdDeviation="7"/></filter>
<clipPath id="clipl"><rect width="1280" height="400" rx="24"/></clipPath>
<clipPath id="fc0l"><rect x="694" y="96" width="412" height="44" rx="22.0"/></clipPath><clipPath id="fc2l"><rect x="694" y="96" width="412" height="44" rx="22.0"/></clipPath><clipPath id="fc3l"><rect x="694" y="96" width="412" height="44" rx="22.0"/></clipPath>
<style>
.key{transform-box:fill-box;transform-origin:center}
.caret{animation:blink 1s steps(1) infinite}
@keyframes blink{0%{opacity:1}50%{opacity:0}}
.vb{transform-box:fill-box;transform-origin:center;animation:talk 1.1s ease-in-out infinite}
@keyframes talk{0%,100%{transform:scaleY(.35)}40%{transform:scaleY(1)}70%{transform:scaleY(.6)}}
@keyframes c1l{0%{transform:translateX(0)}2.92%{transform:translateX(0px)}2.97%{transform:translateX(14.05px)}4.5%{transform:translateX(14.05px)}4.55%{transform:translateX(26.93px)}6.08%{transform:translateX(26.93px)}6.13%{transform:translateX(38.58px)}7.67%{transform:translateX(38.58px)}7.72%{transform:translateX(44.3px)}9.25%{transform:translateX(44.3px)}9.3%{transform:translateX(57.27px)}10.83%{transform:translateX(57.27px)}10.88%{transform:translateX(71.04px)}12.42%{transform:translateX(71.04px)}12.47%{transform:translateX(84.63px)}14%{transform:translateX(84.63px)}14.05%{transform:translateX(97.51px)}15.58%{transform:translateX(97.51px)}15.63%{transform:translateX(107.08px)}17.17%{transform:translateX(107.08px)}17.22%{transform:translateX(120.41px)}100%{transform:translateX(120.41px)}}
@keyframes p2l{0%{opacity:0}1.2%{opacity:1}23.8%{opacity:1}25%{opacity:0}100%{opacity:0}}
@keyframes w3l{0%{opacity:0;transform:translateY(6px)}38.33%{opacity:0;transform:translateY(6px)}40.83%{opacity:1;transform:translateY(0)}100%{opacity:1;transform:translateY(0)}}
@keyframes p4l{0%{opacity:0}25%{opacity:0}26.2%{opacity:1}48.8%{opacity:1}50%{opacity:0}100%{opacity:0}}
@keyframes c5l{0%{transform:translateX(0)}51.67%{transform:translateX(0px)}51.72%{transform:translateX(10.87px)}52.92%{transform:translateX(10.87px)}52.97%{transform:translateX(23.75px)}54.17%{transform:translateX(23.75px)}54.22%{transform:translateX(37.8px)}55.42%{transform:translateX(37.8px)}55.47%{transform:translateX(51.57px)}56.67%{transform:translateX(51.57px)}56.72%{transform:translateX(57.29px)}57.92%{transform:translateX(57.29px)}57.97%{transform:translateX(70.16px)}59.17%{transform:translateX(70.16px)}59.22%{transform:translateX(75.88px)}60.42%{transform:translateX(75.88px)}60.47%{transform:translateX(89.66px)}61.67%{transform:translateX(89.66px)}61.72%{transform:translateX(95.91px)}62.92%{transform:translateX(95.91px)}62.97%{transform:translateX(104.1px)}100%{transform:translateX(104.1px)}}
@keyframes p6l{0%{opacity:0}50%{opacity:0}51.2%{opacity:1}73.8%{opacity:1}75%{opacity:0}100%{opacity:0}}
@keyframes c7l{0%{transform:translateX(0)}82.92%{transform:translateX(0px)}82.97%{transform:translateX(13.77px)}87.08%{transform:translateX(13.77px)}87.13%{transform:translateX(27.55px)}100%{transform:translateX(27.55px)}}
@keyframes p8l{0%{opacity:0}75%{opacity:0}76.2%{opacity:1}98.8%{opacity:1}100%{opacity:0}}
@keyframes o9l{0%{opacity:0}4.5%{opacity:0}5%{opacity:0.9}9.5%{opacity:0}37.92%{opacity:0}38.42%{opacity:0.9}42.92%{opacity:0}52.92%{opacity:0}53.42%{opacity:0.9}57.92%{opacity:0}100%{opacity:0}}
@keyframes s10l{0%{transform:scale(1)}4.5%{transform:scale(1)}4.85%{transform:scale(0.88)}6.45%{transform:scale(1)}52.92%{transform:scale(1)}53.27%{transform:scale(0.88)}54.87%{transform:scale(1)}100%{transform:scale(1)}}
@keyframes b11l{0%{opacity:0;transform:translateY(8px) scale(.7)}4.5%{opacity:0;transform:translateY(8px) scale(.7)}4.8%{opacity:1;transform:translateY(0) scale(1)}6.2%{opacity:1;transform:translateY(0) scale(1)}7.2%{opacity:0;transform:translateY(8px) scale(.7)}52.92%{opacity:0;transform:translateY(8px) scale(.7)}53.22%{opacity:1;transform:translateY(0) scale(1)}54.62%{opacity:1;transform:translateY(0) scale(1)}55.62%{opacity:0;transform:translateY(8px) scale(.7)}100%{opacity:0;transform:translateY(8px) scale(.7)}}
@keyframes o12l{0%{opacity:0}15.58%{opacity:0}15.98%{opacity:0.9}19.18%{opacity:0}100%{opacity:0}}
@keyframes s13l{0%{transform:scale(1)}15.58%{transform:scale(1)}15.93%{transform:scale(0.88)}17.53%{transform:scale(1)}100%{transform:scale(1)}}
@keyframes b14l{0%{opacity:0;transform:translateY(8px) scale(.7)}15.58%{opacity:0;transform:translateY(8px) scale(.7)}15.88%{opacity:1;transform:translateY(0) scale(1)}17.28%{opacity:1;transform:translateY(0) scale(1)}18.28%{opacity:0;transform:translateY(8px) scale(.7)}100%{opacity:0;transform:translateY(8px) scale(.7)}}
@keyframes o15l{0%{opacity:0}6.08%{opacity:0}6.48%{opacity:0.9}9.68%{opacity:0}100%{opacity:0}}
@keyframes s16l{0%{transform:scale(1)}6.08%{transform:scale(1)}6.43%{transform:scale(0.88)}8.03%{transform:scale(1)}100%{transform:scale(1)}}
@keyframes b17l{0%{opacity:0;transform:translateY(8px) scale(.7)}6.08%{opacity:0;transform:translateY(8px) scale(.7)}6.38%{opacity:1;transform:translateY(0) scale(1)}7.78%{opacity:1;transform:translateY(0) scale(1)}8.78%{opacity:0;transform:translateY(8px) scale(.7)}100%{opacity:0;transform:translateY(8px) scale(.7)}}
@keyframes o18l{0%{opacity:0}33.03%{opacity:0}33.53%{opacity:0.9}38.03%{opacity:0}61.67%{opacity:0}62.17%{opacity:0.9}66.67%{opacity:0}100%{opacity:0}}
@keyframes s19l{0%{transform:scale(1)}61.67%{transform:scale(1)}62.02%{transform:scale(0.88)}63.62%{transform:scale(1)}100%{transform:scale(1)}}
@keyframes b20l{0%{opacity:0;transform:translateY(8px) scale(.7)}61.67%{opacity:0;transform:translateY(8px) scale(.7)}61.97%{opacity:1;transform:translateY(0) scale(1)}63.37%{opacity:1;transform:translateY(0) scale(1)}64.37%{opacity:0;transform:translateY(8px) scale(.7)}100%{opacity:0;transform:translateY(8px) scale(.7)}}
@keyframes o21l{0%{opacity:0}12.42%{opacity:0}12.82%{opacity:0.9}16.02%{opacity:0}100%{opacity:0}}
@keyframes s22l{0%{transform:scale(1)}12.42%{transform:scale(1)}12.77%{transform:scale(0.88)}14.37%{transform:scale(1)}100%{transform:scale(1)}}
@keyframes b23l{0%{opacity:0;transform:translateY(8px) scale(.7)}12.42%{opacity:0;transform:translateY(8px) scale(.7)}12.72%{opacity:1;transform:translateY(0) scale(1)}14.12%{opacity:1;transform:translateY(0) scale(1)}15.12%{opacity:0;transform:translateY(8px) scale(.7)}100%{opacity:0;transform:translateY(8px) scale(.7)}}
@keyframes o24l{0%{opacity:0}14%{opacity:0}14.4%{opacity:0.9}17.6%{opacity:0}57.92%{opacity:0}58.32%{opacity:0.9}61.52%{opacity:0}100%{opacity:0}}
@keyframes s25l{0%{transform:scale(1)}14%{transform:scale(1)}14.35%{transform:scale(0.88)}15.95%{transform:scale(1)}57.92%{transform:scale(1)}58.27%{transform:scale(0.88)}59.87%{transform:scale(1)}100%{transform:scale(1)}}
@keyframes b26l{0%{opacity:0;transform:translateY(8px) scale(.7)}14%{opacity:0;transform:translateY(8px) scale(.7)}14.3%{opacity:1;transform:translateY(0) scale(1)}15.7%{opacity:1;transform:translateY(0) scale(1)}16.7%{opacity:0;transform:translateY(8px) scale(.7)}57.92%{opacity:0;transform:translateY(8px) scale(.7)}58.22%{opacity:1;transform:translateY(0) scale(1)}59.62%{opacity:1;transform:translateY(0) scale(1)}60.62%{opacity:0;transform:translateY(8px) scale(.7)}100%{opacity:0;transform:translateY(8px) scale(.7)}}
@keyframes o27l{0%{opacity:0}51.67%{opacity:0}52.07%{opacity:0.9}55.27%{opacity:0}100%{opacity:0}}
@keyframes s28l{0%{transform:scale(1)}51.67%{transform:scale(1)}52.02%{transform:scale(0.88)}53.62%{transform:scale(1)}100%{transform:scale(1)}}
@keyframes b29l{0%{opacity:0;transform:translateY(8px) scale(.7)}51.67%{opacity:0;transform:translateY(8px) scale(.7)}51.97%{opacity:1;transform:translateY(0) scale(1)}53.37%{opacity:1;transform:translateY(0) scale(1)}54.37%{opacity:0;transform:translateY(8px) scale(.7)}100%{opacity:0;transform:translateY(8px) scale(.7)}}
@keyframes o30l{0%{opacity:0}17.17%{opacity:0}17.67%{opacity:0.9}22.17%{opacity:0}36.94%{opacity:0}37.44%{opacity:0.9}41.94%{opacity:0}55.42%{opacity:0}55.92%{opacity:0.9}60.42%{opacity:0}100%{opacity:0}}
@keyframes s31l{0%{transform:scale(1)}17.17%{transform:scale(1)}17.52%{transform:scale(0.88)}19.12%{transform:scale(1)}55.42%{transform:scale(1)}55.77%{transform:scale(0.88)}57.37%{transform:scale(1)}100%{transform:scale(1)}}
@keyframes b32l{0%{opacity:0;transform:translateY(8px) scale(.7)}17.17%{opacity:0;transform:translateY(8px) scale(.7)}17.47%{opacity:1;transform:translateY(0) scale(1)}18.87%{opacity:1;transform:translateY(0) scale(1)}19.87%{opacity:0;transform:translateY(8px) scale(.7)}55.42%{opacity:0;transform:translateY(8px) scale(.7)}55.72%{opacity:1;transform:translateY(0) scale(1)}57.12%{opacity:1;transform:translateY(0) scale(1)}58.12%{opacity:0;transform:translateY(8px) scale(.7)}100%{opacity:0;transform:translateY(8px) scale(.7)}}
@keyframes o33l{0%{opacity:0}62.92%{opacity:0}63.32%{opacity:0.9}66.52%{opacity:0}100%{opacity:0}}
@keyframes s34l{0%{transform:scale(1)}62.92%{transform:scale(1)}63.27%{transform:scale(0.88)}64.87%{transform:scale(1)}100%{transform:scale(1)}}
@keyframes b35l{0%{opacity:0;transform:translateY(8px) scale(.7)}62.92%{opacity:0;transform:translateY(8px) scale(.7)}63.22%{opacity:1;transform:translateY(0) scale(1)}64.62%{opacity:1;transform:translateY(0) scale(1)}65.62%{opacity:0;transform:translateY(8px) scale(.7)}100%{opacity:0;transform:translateY(8px) scale(.7)}}
@keyframes o36l{0%{opacity:0}27.92%{opacity:0}28.42%{opacity:0.9}32.92%{opacity:0}60.42%{opacity:0}60.92%{opacity:0.9}65.42%{opacity:0}82.92%{opacity:0}83.42%{opacity:0.9}87.92%{opacity:0}87.08%{opacity:0}87.58%{opacity:0.9}92.08%{opacity:0}100%{opacity:0}}
@keyframes s37l{0%{transform:scale(1)}60.42%{transform:scale(1)}60.77%{transform:scale(0.88)}62.37%{transform:scale(1)}82.92%{transform:scale(1)}83.27%{transform:scale(0.88)}84.87%{transform:scale(1)}87.08%{transform:scale(1)}87.43%{transform:scale(0.88)}89.03%{transform:scale(1)}100%{transform:scale(1)}}
@keyframes b38l{0%{opacity:0;transform:translateY(8px) scale(.7)}60.42%{opacity:0;transform:translateY(8px) scale(.7)}60.72%{opacity:1;transform:translateY(0) scale(1)}62.12%{opacity:1;transform:translateY(0) scale(1)}63.12%{opacity:0;transform:translateY(8px) scale(.7)}82.92%{opacity:0;transform:translateY(8px) scale(.7)}83.22%{opacity:1;transform:translateY(0) scale(1)}84.62%{opacity:1;transform:translateY(0) scale(1)}85.62%{opacity:0;transform:translateY(8px) scale(.7)}87.08%{opacity:0;transform:translateY(8px) scale(.7)}87.38%{opacity:1;transform:translateY(0) scale(1)}88.78%{opacity:1;transform:translateY(0) scale(1)}89.78%{opacity:0;transform:translateY(8px) scale(.7)}100%{opacity:0;transform:translateY(8px) scale(.7)}}
@keyframes o39l{0%{opacity:0}2.92%{opacity:0}3.32%{opacity:0.9}6.52%{opacity:0}100%{opacity:0}}
@keyframes s40l{0%{transform:scale(1)}2.92%{transform:scale(1)}3.27%{transform:scale(0.88)}4.87%{transform:scale(1)}100%{transform:scale(1)}}
@keyframes b41l{0%{opacity:0;transform:translateY(8px) scale(.7)}2.92%{opacity:0;transform:translateY(8px) scale(.7)}3.22%{opacity:1;transform:translateY(0) scale(1)}4.62%{opacity:1;transform:translateY(0) scale(1)}5.62%{opacity:0;transform:translateY(8px) scale(.7)}100%{opacity:0;transform:translateY(8px) scale(.7)}}
@keyframes o42l{0%{opacity:0}9.25%{opacity:0}9.65%{opacity:0.9}12.85%{opacity:0}100%{opacity:0}}
@keyframes s43l{0%{transform:scale(1)}9.25%{transform:scale(1)}9.6%{transform:scale(0.88)}11.2%{transform:scale(1)}100%{transform:scale(1)}}
@keyframes b44l{0%{opacity:0;transform:translateY(8px) scale(.7)}9.25%{opacity:0;transform:translateY(8px) scale(.7)}9.55%{opacity:1;transform:translateY(0) scale(1)}10.95%{opacity:1;transform:translateY(0) scale(1)}11.95%{opacity:0;transform:translateY(8px) scale(.7)}100%{opacity:0;transform:translateY(8px) scale(.7)}}
@keyframes o45l{0%{opacity:0}31.34%{opacity:0}31.84%{opacity:0.9}36.34%{opacity:0}100%{opacity:0}}
@keyframes o46l{0%{opacity:0}10.83%{opacity:0}11.23%{opacity:0.9}14.43%{opacity:0}100%{opacity:0}}
@keyframes s47l{0%{transform:scale(1)}10.83%{transform:scale(1)}11.18%{transform:scale(0.88)}12.78%{transform:scale(1)}100%{transform:scale(1)}}
@keyframes b48l{0%{opacity:0;transform:translateY(8px) scale(.7)}10.83%{opacity:0;transform:translateY(8px) scale(.7)}11.13%{opacity:1;transform:translateY(0) scale(1)}12.53%{opacity:1;transform:translateY(0) scale(1)}13.53%{opacity:0;transform:translateY(8px) scale(.7)}100%{opacity:0;transform:translateY(8px) scale(.7)}}
@keyframes o49l{0%{opacity:0}54.17%{opacity:0}54.57%{opacity:0.9}57.77%{opacity:0}100%{opacity:0}}
@keyframes s50l{0%{transform:scale(1)}54.17%{transform:scale(1)}54.52%{transform:scale(0.88)}56.12%{transform:scale(1)}100%{transform:scale(1)}}
@keyframes b51l{0%{opacity:0;transform:translateY(8px) scale(.7)}54.17%{opacity:0;transform:translateY(8px) scale(.7)}54.47%{opacity:1;transform:translateY(0) scale(1)}55.87%{opacity:1;transform:translateY(0) scale(1)}56.87%{opacity:0;transform:translateY(8px) scale(.7)}100%{opacity:0;transform:translateY(8px) scale(.7)}}
@keyframes o52l{0%{opacity:0}65.42%{opacity:0}65.82%{opacity:0.9}69.02%{opacity:0}100%{opacity:0}}
@keyframes s53l{0%{transform:scale(1)}65.42%{transform:scale(1)}65.77%{transform:scale(0.88)}67.37%{transform:scale(1)}100%{transform:scale(1)}}
@keyframes o54l{0%{opacity:0}7.67%{opacity:0}8.07%{opacity:0.9}11.27%{opacity:0}56.67%{opacity:0}57.07%{opacity:0.9}60.27%{opacity:0}59.17%{opacity:0}59.57%{opacity:0.9}62.77%{opacity:0}100%{opacity:0}}
@keyframes s55l{0%{transform:scale(1)}7.67%{transform:scale(1)}8.02%{transform:scale(0.88)}9.62%{transform:scale(1)}56.67%{transform:scale(1)}57.02%{transform:scale(0.88)}58.62%{transform:scale(1)}59.17%{transform:scale(1)}59.52%{transform:scale(0.88)}61.12%{transform:scale(1)}100%{transform:scale(1)}}
@keyframes r56l{0%{opacity:0;transform:translate(0px,0px)}76.07%{opacity:0;transform:translate(0px,0px)}76.67%{opacity:1;transform:translate(0px,0px)}78.33%{opacity:1;transform:translate(57px,0px)}79.83%{opacity:1;transform:translate(114px,0px)}81.33%{opacity:1;transform:translate(171px,0px)}98.4%{opacity:1;transform:translate(171px,0px)}99.9%{opacity:0;transform:translate(171px,0px)}100%{opacity:0;transform:translate(171px,0px)}}
@keyframes t57l{0%{stroke-dashoffset:668.64;opacity:1}27.92%{stroke-dashoffset:668.64;opacity:1}37.92%{stroke-dashoffset:0;opacity:1}45.42%{stroke-dashoffset:0;opacity:1}51.25%{stroke-dashoffset:0;opacity:0}100%{stroke-dashoffset:668.64;opacity:0}}
@keyframes e58l{0%{opacity:0;transform:scale(0.2)}66.67%{opacity:0;transform:scale(0.2)}69%{opacity:1;transform:scale(1.12)}70.42%{opacity:1;transform:scale(1)}74.2%{opacity:1;transform:scale(1)}75%{opacity:0;transform:scale(0.9)}100%{opacity:0;transform:scale(0.2)}}
@keyframes g59l{0%{opacity:0;transform:scale(0.2)}68.33%{opacity:0;transform:scale(0.2)}70.67%{opacity:1;transform:scale(1.12)}72.08%{opacity:1;transform:scale(1)}74.2%{opacity:1;transform:scale(1)}75%{opacity:0;transform:scale(0.9)}100%{opacity:0;transform:scale(0.2)}}
@keyframes h60l{0%{opacity:0}74%{opacity:0}76%{opacity:1}98.5%{opacity:1}100%{opacity:0}}
@keyframes d61l{0%{opacity:0.55}78.33%{opacity:0.55}78.63%{opacity:1}79.83%{opacity:0.55}79.83%{opacity:0.55}80.13%{opacity:1}81.33%{opacity:0.55}81.33%{opacity:0.55}81.63%{opacity:1}82.83%{opacity:0.55}100%{opacity:0.55}}
@keyframes a62l{0%{transform:scale(1);opacity:.9}82.92%{transform:scale(1);opacity:.9}83.22%{transform:scale(1.6);opacity:1}84.82%{transform:scale(1);opacity:.9}87.08%{transform:scale(1);opacity:.9}87.38%{transform:scale(1.6);opacity:1}88.98%{transform:scale(1);opacity:.9}100%{transform:scale(1);opacity:.9}}
.title{font:800 84px 'Inter','Segoe UI','Noto Sans',Helvetica,Arial,sans-serif;letter-spacing:-2px}
.sub{font:500 26px 'Inter','Segoe UI','Noto Sans',Helvetica,Arial,sans-serif}
.pill{font:600 17px 'Inter','Segoe UI','Noto Sans',Helvetica,Arial,sans-serif}
.kl{font:600 17px 'Inter','Segoe UI','Noto Sans',Helvetica,Arial,sans-serif}
.kls{font:600 13px 'Inter','Segoe UI','Noto Sans',Helvetica,Arial,sans-serif}
.kh{font:600 9px 'Inter','Segoe UI','Noto Sans',Helvetica,Arial,sans-serif}
.bl{font:700 26px 'Inter','Segoe UI','Noto Sans',Helvetica,Arial,sans-serif}
.ft{font:600 22px 'Inter','Segoe UI','Noto Sans',Helvetica,Arial,sans-serif}
.sg{font:500 18px 'Inter','Segoe UI','Noto Sans',Helvetica,Arial,sans-serif}
.sgb{font:700 18px 'Inter','Segoe UI','Noto Sans',Helvetica,Arial,sans-serif}
.gt{font:800 11px 'Inter','Segoe UI','Noto Sans',Helvetica,Arial,sans-serif;letter-spacing:1px}
</style>
</defs>
<g clip-path="url(#clipl)">
<rect width="1280" height="400" fill="url(#bgl)"/>
<ellipse cx="972" cy="300" rx="420" ry="180" fill="url(#halol)"/>
<rect x="690" y="92" width="420" height="52" rx="26.0" fill="#ffffff" stroke="#cfd9ea" stroke-width="2"/>
<rect x="676" y="168" width="592" height="260" rx="22" fill="#e8eef8" stroke="#cfd9ea" stroke-width="2"/>
<rect x="926" y="173" width="92" height="4" rx="2" fill="#cfd9ea"/>
<g fill="#6b7894"><circle cx="703" cy="189" r="2.6"/><circle cx="713" cy="189" r="2.6"/><circle cx="703" cy="199" r="2.6"/><circle cx="713" cy="199" r="2.6"/></g>
<rect x="891.3" y="185" width="1.5" height="18" fill="#cfd9ea"/>
<rect x="1048.6" y="185" width="1.5" height="18" fill="#cfd9ea"/>
<circle cx="1232" cy="194" r="16" fill="#1d99f3" opacity="0.16"/>
<rect x="1227.5" y="184" width="9" height="13" rx="4.5" fill="#1d99f3"/><path d="M 1224.5 193 a 7.5 7.5 0 0 0 15 0 M 1232 200.5 v 3.5" fill="none" stroke="#1d99f3" stroke-width="2" stroke-linecap="round"/>
<rect class="vb" style="animation-delay:0s" x="1198" y="186" width="3" height="16" rx="1.5" fill="#1d99f3"/>
<rect class="vb" style="animation-delay:-0.35s" x="1204" y="186" width="3" height="16" rx="1.5" fill="#1d99f3"/>
<rect class="vb" style="animation-delay:-0.7s" x="1210" y="186" width="3" height="16" rx="1.5" fill="#1d99f3"/>
<g style="opacity:0;animation:p2l 12s linear infinite both"><text x="712" y="126" class="ft" fill="#10172a" textLength="120.41" lengthAdjust="spacingAndGlyphs">hey kboard</text><g clip-path="url(#fc0l)"><g style="animation:c1l 12s linear infinite both"><rect x="711" y="98" width="420" height="40" fill="#ffffff"/><rect class="caret" x="712" y="105" width="2.5" height="26" rx="1" fill="#1d99f3"/></g></g><text x="812.65" y="200" text-anchor="middle" class="sg" fill="#4a5775">hey</text><text x="969.95" y="200" text-anchor="middle" class="sgb" fill="#10172a">KBoard</text><text x="1127.25" y="200" text-anchor="middle" class="sg" fill="#4a5775">keyboard</text></g>
<g style="animation:p4l 12s linear infinite both"><g style="animation:w3l 12s cubic-bezier(.2,.9,.3,1.2) infinite both"><text x="712" y="126" class="ft" fill="#10172a" textLength="52.94" lengthAdjust="spacingAndGlyphs">glide</text><rect class="caret" x="767.94" y="105" width="2.5" height="26" rx="1" fill="#1d99f3"/></g><text x="812.65" y="200" text-anchor="middle" class="sg" fill="#4a5775">gliding</text><text x="969.95" y="200" text-anchor="middle" class="sgb" fill="#10172a">glide</text><text x="1127.25" y="200" text-anchor="middle" class="sg" fill="#4a5775">glides</text></g>
<g style="opacity:0;animation:p6l 12s linear infinite both"><text x="712" y="126" class="ft" fill="#10172a" textLength="104.1" lengthAdjust="spacingAndGlyphs">send a gif</text><g clip-path="url(#fc2l)"><g style="animation:c5l 12s linear infinite both"><rect x="711" y="98" width="420" height="40" fill="#ffffff"/><rect class="caret" x="712" y="105" width="2.5" height="26" rx="1" fill="#1d99f3"/></g></g><text x="812.65" y="200" text-anchor="middle" class="sg" fill="#4a5775">gift</text><text x="969.95" y="200" text-anchor="middle" class="sgb" fill="#10172a">GIF</text><text x="1127.25" y="200" text-anchor="middle" class="sg" fill="#4a5775">gifs</text></g>
<g style="opacity:0;animation:p8l 12s linear infinite both"><text x="712" y="126" class="ft" fill="#10172a" textLength="27.55" lengthAdjust="spacingAndGlyphs">gg</text><g clip-path="url(#fc3l)"><g style="animation:c7l 12s linear infinite both"><rect x="711" y="98" width="420" height="40" fill="#ffffff"/><rect class="caret" x="712" y="105" width="2.5" height="26" rx="1" fill="#1d99f3"/></g></g><text x="812.65" y="200" text-anchor="middle" class="sg" fill="#4a5775">good game</text><text x="969.95" y="200" text-anchor="middle" class="sgb" fill="#10172a">gg</text><text x="1127.25" y="200" text-anchor="middle" class="sg" fill="#4a5775">GG</text></g>
<g><rect x="690" y="222" width="50" height="36" rx="9" fill="#b9c6dc" opacity="0.55"/><rect x="690" y="220" width="50" height="36" rx="9" fill="#ffffff"/><text x="715" y="244" text-anchor="middle" class="kl" fill="#10172a">q</text><text x="733" y="232" text-anchor="end" class="kh" fill="#6b7894">1</text></g><g><rect x="747" y="222" width="50" height="36" rx="9" fill="#b9c6dc" opacity="0.55"/><rect x="747" y="220" width="50" height="36" rx="9" fill="#ffffff"/><text x="772" y="244" text-anchor="middle" class="kl" fill="#10172a">w</text><text x="790" y="232" text-anchor="end" class="kh" fill="#6b7894">2</text></g><g class="key" style="animation:s10l 12s ease-out infinite both"><rect x="804" y="222" width="50" height="36" rx="9" fill="#b9c6dc" opacity="0.55"/><rect x="804" y="220" width="50" height="36" rx="9" fill="#ffffff"/><rect x="804" y="220" width="50" height="36" rx="9" fill="url(#herol)" style="opacity:0;animation:o9l 12s ease-out infinite both"/><text x="829" y="244" text-anchor="middle" class="kl" fill="#10172a">e</text><text x="847" y="232" text-anchor="end" class="kh" fill="#6b7894">3</text></g><g class="key" style="animation:s13l 12s ease-out infinite both"><rect x="861" y="222" width="50" height="36" rx="9" fill="#b9c6dc" opacity="0.55"/><rect x="861" y="220" width="50" height="36" rx="9" fill="#ffffff"/><rect x="861" y="220" width="50" height="36" rx="9" fill="url(#herol)" style="opacity:0;animation:o12l 12s ease-out infinite both"/><text x="886" y="244" text-anchor="middle" class="kl" fill="#10172a">r</text><text x="904" y="232" text-anchor="end" class="kh" fill="#6b7894">4</text></g><g><rect x="918" y="222" width="50" height="36" rx="9" fill="#b9c6dc" opacity="0.55"/><rect x="918" y="220" width="50" height="36" rx="9" fill="#ffffff"/><text x="943" y="244" text-anchor="middle" class="kl" fill="#10172a">t</text><text x="961" y="232" text-anchor="end" class="kh" fill="#6b7894">5</text></g><g class="key" style="animation:s16l 12s ease-out infinite both"><rect x="975" y="222" width="50" height="36" rx="9" fill="#b9c6dc" opacity="0.55"/><rect x="975" y="220" width="50" height="36" rx="9" fill="#ffffff"/><rect x="975" y="220" width="50" height="36" rx="9" fill="url(#herol)" style="opacity:0;animation:o15l 12s ease-out infinite both"/><text x="1000" y="244" text-anchor="middle" class="kl" fill="#10172a">y</text><text x="1018" y="232" text-anchor="end" class="kh" fill="#6b7894">6</text></g><g><rect x="1032" y="222" width="50" height="36" rx="9" fill="#b9c6dc" opacity="0.55"/><rect x="1032" y="220" width="50" height="36" rx="9" fill="#ffffff"/><text x="1057" y="244" text-anchor="middle" class="kl" fill="#10172a">u</text><text x="1075" y="232" text-anchor="end" class="kh" fill="#6b7894">7</text></g><g class="key" style="animation:s19l 12s ease-out infinite both"><rect x="1089" y="222" width="50" height="36" rx="9" fill="#b9c6dc" opacity="0.55"/><rect x="1089" y="220" width="50" height="36" rx="9" fill="#ffffff"/><rect x="1089" y="220" width="50" height="36" rx="9" fill="url(#herol)" style="opacity:0;animation:o18l 12s ease-out infinite both"/><text x="1114" y="244" text-anchor="middle" class="kl" fill="#10172a">i</text><text x="1132" y="232" text-anchor="end" class="kh" fill="#6b7894">8</text></g><g class="key" style="animation:s22l 12s ease-out infinite both"><rect x="1146" y="222" width="50" height="36" rx="9" fill="#b9c6dc" opacity="0.55"/><rect x="1146" y="220" width="50" height="36" rx="9" fill="#ffffff"/><rect x="1146" y="220" width="50" height="36" rx="9" fill="url(#herol)" style="opacity:0;animation:o21l 12s ease-out infinite both"/><text x="1171" y="244" text-anchor="middle" class="kl" fill="#10172a">o</text><text x="1189" y="232" text-anchor="end" class="kh" fill="#6b7894">9</text></g><g><rect x="1203" y="222" width="50" height="36" rx="9" fill="#b9c6dc" opacity="0.55"/><rect x="1203" y="220" width="50" height="36" rx="9" fill="#ffffff"/><text x="1228" y="244" text-anchor="middle" class="kl" fill="#10172a">p</text><text x="1246" y="232" text-anchor="end" class="kh" fill="#6b7894">0</text></g><g class="key" style="animation:s25l 12s ease-out infinite both"><rect x="718.5" y="266" width="50" height="36" rx="9" fill="#b9c6dc" opacity="0.55"/><rect x="718.5" y="264" width="50" height="36" rx="9" fill="#ffffff"/><rect x="718.5" y="264" width="50" height="36" rx="9" fill="url(#herol)" style="opacity:0;animation:o24l 12s ease-out infinite both"/><text x="743.5" y="288" text-anchor="middle" class="kl" fill="#10172a">a</text></g><g class="key" style="animation:s28l 12s ease-out infinite both"><rect x="775.5" y="266" width="50" height="36" rx="9" fill="#b9c6dc" opacity="0.55"/><rect x="775.5" y="264" width="50" height="36" rx="9" fill="#ffffff"/><rect x="775.5" y="264" width="50" height="36" rx="9" fill="url(#herol)" style="opacity:0;animation:o27l 12s ease-out infinite both"/><text x="800.5" y="288" text-anchor="middle" class="kl" fill="#10172a">s</text></g><g class="key" style="animation:s31l 12s ease-out infinite both"><rect x="832.5" y="266" width="50" height="36" rx="9" fill="#b9c6dc" opacity="0.55"/><rect x="832.5" y="264" width="50" height="36" rx="9" fill="#ffffff"/><rect x="832.5" y="264" width="50" height="36" rx="9" fill="url(#herol)" style="opacity:0;animation:o30l 12s ease-out infinite both"/><text x="857.5" y="288" text-anchor="middle" class="kl" fill="#10172a">d</text></g><g class="key" style="animation:s34l 12s ease-out infinite both"><rect x="889.5" y="266" width="50" height="36" rx="9" fill="#b9c6dc" opacity="0.55"/><rect x="889.5" y="264" width="50" height="36" rx="9" fill="#ffffff"/><rect x="889.5" y="264" width="50" height="36" rx="9" fill="url(#herol)" style="opacity:0;animation:o33l 12s ease-out infinite both"/><text x="914.5" y="288" text-anchor="middle" class="kl" fill="#10172a">f</text></g><g class="key" style="animation:s37l 12s ease-out infinite both"><rect x="946.5" y="266" width="50" height="36" rx="9" fill="#b9c6dc" opacity="0.55"/><rect x="946.5" y="264" width="50" height="36" rx="9" fill="#ffffff"/><rect x="946.5" y="264" width="50" height="36" rx="9" fill="url(#herol)" style="opacity:0;animation:o36l 12s ease-out infinite both"/><text x="971.5" y="288" text-anchor="middle" class="kl" fill="#10172a">g</text></g><g class="key" style="animation:s40l 12s ease-out infinite both"><rect x="1003.5" y="266" width="50" height="36" rx="9" fill="#b9c6dc" opacity="0.55"/><rect x="1003.5" y="264" width="50" height="36" rx="9" fill="#ffffff"/><rect x="1003.5" y="264" width="50" height="36" rx="9" fill="url(#herol)" style="opacity:0;animation:o39l 12s ease-out infinite both"/><text x="1028.5" y="288" text-anchor="middle" class="kl" fill="#10172a">h</text></g><g><rect x="1060.5" y="266" width="50" height="36" rx="9" fill="#b9c6dc" opacity="0.55"/><rect x="1060.5" y="264" width="50" height="36" rx="9" fill="#ffffff"/><text x="1085.5" y="288" text-anchor="middle" class="kl" fill="#10172a">j</text></g><g class="key" style="animation:s43l 12s ease-out infinite both"><rect x="1117.5" y="266" width="50" height="36" rx="9" fill="#b9c6dc" opacity="0.55"/><rect x="1117.5" y="264" width="50" height="36" rx="9" fill="#ffffff"/><rect x="1117.5" y="264" width="50" height="36" rx="9" fill="url(#herol)" style="opacity:0;animation:o42l 12s ease-out infinite both"/><text x="1142.5" y="288" text-anchor="middle" class="kl" fill="#10172a">k</text></g><g><rect x="1174.5" y="266" width="50" height="36" rx="9" fill="#b9c6dc" opacity="0.55"/><rect x="1174.5" y="264" width="50" height="36" rx="9" fill="#ffffff"/><rect x="1174.5" y="264" width="50" height="36" rx="9" fill="url(#herol)" style="opacity:0;animation:o45l 12s ease-out infinite both"/><text x="1199.5" y="288" text-anchor="middle" class="kl" fill="#10172a">l</text></g><g><rect x="690" y="310" width="78.5" height="36" rx="9" fill="#b9c6dc" opacity="0.55"/><rect x="690" y="308" width="78.5" height="36" rx="9" fill="#d8e1ef"/><path d="M 729.25 317 l 9 9 h -5 v 8 h -8 v -8 h -5 z" fill="none" stroke="#10172a" stroke-width="2" stroke-linejoin="round"/></g><g><rect x="775.5" y="310" width="50" height="36" rx="9" fill="#b9c6dc" opacity="0.55"/><rect x="775.5" y="308" width="50" height="36" rx="9" fill="#ffffff"/><text x="800.5" y="332" text-anchor="middle" class="kl" fill="#10172a">z</text></g><g><rect x="832.5" y="310" width="50" height="36" rx="9" fill="#b9c6dc" opacity="0.55"/><rect x="832.5" y="308" width="50" height="36" rx="9" fill="#ffffff"/><text x="857.5" y="332" text-anchor="middle" class="kl" fill="#10172a">x</text></g><g><rect x="889.5" y="310" width="50" height="36" rx="9" fill="#b9c6dc" opacity="0.55"/><rect x="889.5" y="308" width="50" height="36" rx="9" fill="#ffffff"/><text x="914.5" y="332" text-anchor="middle" class="kl" fill="#10172a">c</text></g><g><rect x="946.5" y="310" width="50" height="36" rx="9" fill="#b9c6dc" opacity="0.55"/><rect x="946.5" y="308" width="50" height="36" rx="9" fill="#ffffff"/><text x="971.5" y="332" text-anchor="middle" class="kl" fill="#10172a">v</text></g><g class="key" style="animation:s47l 12s ease-out infinite both"><rect x="1003.5" y="310" width="50" height="36" rx="9" fill="#b9c6dc" opacity="0.55"/><rect x="1003.5" y="308" width="50" height="36" rx="9" fill="#ffffff"/><rect x="1003.5" y="308" width="50" height="36" rx="9" fill="url(#herol)" style="opacity:0;animation:o46l 12s ease-out infinite both"/><text x="1028.5" y="332" text-anchor="middle" class="kl" fill="#10172a">b</text></g><g class="key" style="animation:s50l 12s ease-out infinite both"><rect x="1060.5" y="310" width="50" height="36" rx="9" fill="#b9c6dc" opacity="0.55"/><rect x="1060.5" y="308" width="50" height="36" rx="9" fill="#ffffff"/><rect x="1060.5" y="308" width="50" height="36" rx="9" fill="url(#herol)" style="opacity:0;animation:o49l 12s ease-out infinite both"/><text x="1085.5" y="332" text-anchor="middle" class="kl" fill="#10172a">n</text></g><g><rect x="1117.5" y="310" width="50" height="36" rx="9" fill="#b9c6dc" opacity="0.55"/><rect x="1117.5" y="308" width="50" height="36" rx="9" fill="#ffffff"/><text x="1142.5" y="332" text-anchor="middle" class="kl" fill="#10172a">m</text></g><g><rect x="1174.5" y="310" width="78.5" height="36" rx="9" fill="#b9c6dc" opacity="0.55"/><rect x="1174.5" y="308" width="78.5" height="36" rx="9" fill="#d8e1ef"/><path d="M 1200.75 326 l 7 -8 h 17 a 3 3 0 0 1 3 3 v 10 a 3 3 0 0 1 -3 3 h -17 z" fill="none" stroke="#10172a" stroke-width="2" stroke-linejoin="round"/><path d="M 1212.75 322 l 8 8 m 0 -8 l -8 8" stroke="#10172a" stroke-width="2" stroke-linecap="round"/></g><g><rect x="690" y="354" width="78.5" height="36" rx="9" fill="#b9c6dc" opacity="0.55"/><rect x="690" y="352" width="78.5" height="36" rx="9" fill="#d8e1ef"/><text x="729.25" y="376" text-anchor="middle" class="kls" fill="#10172a">?123</text></g><g><rect x="775.5" y="354" width="50" height="36" rx="9" fill="#b9c6dc" opacity="0.55"/><rect x="775.5" y="352" width="50" height="36" rx="9" fill="#d8e1ef"/><text x="800.5" y="376" text-anchor="middle" class="kl" fill="#10172a">,</text></g><g class="key" style="animation:s53l 12s ease-out infinite both"><rect x="832.5" y="354" width="50" height="36" rx="9" fill="#b9c6dc" opacity="0.55"/><rect x="832.5" y="352" width="50" height="36" rx="9" fill="#d8e1ef"/><rect x="832.5" y="352" width="50" height="36" rx="9" fill="url(#herol)" style="opacity:0;animation:o52l 12s ease-out infinite both"/><circle cx="857.5" cy="370" r="9" fill="none" stroke="#10172a" stroke-width="2"/><circle cx="854.3" cy="368" r="1.4" fill="#10172a"/><circle cx="860.7" cy="368" r="1.4" fill="#10172a"/><path d="M 853 372.5 q 4.5 4.5 9 0" fill="none" stroke="#10172a" stroke-width="1.8" stroke-linecap="round"/></g><g class="key" style="animation:s55l 12s ease-out infinite both"><rect x="889.5" y="354" width="221" height="36" rx="9" fill="#b9c6dc" opacity="0.55"/><rect x="889.5" y="352" width="221" height="36" rx="9" fill="#ffffff"/><rect x="889.5" y="352" width="221" height="36" rx="9" fill="url(#herol)" style="opacity:0;animation:o54l 12s ease-out infinite both"/><rect x="978" y="378" width="44" height="3" rx="1.5" fill="#6b7894" opacity="0.6"/></g><g><rect x="1117.5" y="354" width="50" height="36" rx="9" fill="#b9c6dc" opacity="0.55"/><rect x="1117.5" y="352" width="50" height="36" rx="9" fill="#d8e1ef"/><text x="1142.5" y="376" text-anchor="middle" class="kl" fill="#10172a">.</text></g><g><rect x="1174.5" y="354" width="78.5" height="36" rx="9" fill="#b9c6dc" opacity="0.55"/><rect x="1174.5" y="352" width="78.5" height="36" rx="9" fill="#1d99f3"/><path d="M 1222.75 362 v 8 a 3 3 0 0 1 -3 3 h -15 m 5 -6 l -6 6 l 6 6" fill="none" stroke="#ffffff" stroke-width="2.4" stroke-linecap="round" stroke-linejoin="round"/></g>
<g style="opacity:0;animation:r56l 12s cubic-bezier(.3,.8,.3,1) infinite both"><rect x="771.5" y="260" width="58" height="44" rx="12" fill="none" stroke="#4f9d2e" stroke-width="3"/></g>
<g filter="url(#blurl)" opacity="0.85"><path d="M 971.5 282 C 1009.5 282 1175.75 289.33 1199.5 282 C 1223.25 274.67 1171 238 1114 238 C 1057 238 905 282 857.5 282 C 810 282 833.75 245.33 829 238" fill="none" stroke="url(#traill)" stroke-width="20" stroke-linecap="round" stroke-linejoin="round" stroke-dasharray="668.64" style="animation:t57l 12s cubic-bezier(.45,0,.35,1) infinite both"/></g>
<g><path d="M 971.5 282 C 1009.5 282 1175.75 289.33 1199.5 282 C 1223.25 274.67 1171 238 1114 238 C 1057 238 905 282 857.5 282 C 810 282 833.75 245.33 829 238" fill="none" stroke="url(#traill)" stroke-width="9" stroke-linecap="round" stroke-linejoin="round" stroke-dasharray="668.64" style="animation:t57l 12s cubic-bezier(.45,0,.35,1) infinite both"/></g>
<g opacity="0.6"><path d="M 971.5 282 C 1009.5 282 1175.75 289.33 1199.5 282 C 1223.25 274.67 1171 238 1114 238 C 1057 238 905 282 857.5 282 C 810 282 833.75 245.33 829 238" fill="none" stroke="#ffffff" stroke-width="3" stroke-linecap="round" stroke-linejoin="round" stroke-dasharray="668.64" style="animation:t57l 12s cubic-bezier(.45,0,.35,1) infinite both"/></g>
<g class="key" style="opacity:0;animation:b11l 12s cubic-bezier(.2,.9,.3,1.3) infinite both"><rect x="799" y="165" width="60" height="52" rx="12" fill="#b9c6dc" opacity="0.5"/><rect x="799" y="162" width="60" height="52" rx="12" fill="#ffffff" stroke="#1d99f3" stroke-width="2"/><text x="829" y="198" text-anchor="middle" class="bl" fill="#10172a">e</text></g><g class="key" style="opacity:0;animation:b14l 12s cubic-bezier(.2,.9,.3,1.3) infinite both"><rect x="856" y="165" width="60" height="52" rx="12" fill="#b9c6dc" opacity="0.5"/><rect x="856" y="162" width="60" height="52" rx="12" fill="#ffffff" stroke="#1d99f3" stroke-width="2"/><text x="886" y="198" text-anchor="middle" class="bl" fill="#10172a">r</text></g><g class="key" style="opacity:0;animation:b17l 12s cubic-bezier(.2,.9,.3,1.3) infinite both"><rect x="970" y="165" width="60" height="52" rx="12" fill="#b9c6dc" opacity="0.5"/><rect x="970" y="162" width="60" height="52" rx="12" fill="#ffffff" stroke="#1d99f3" stroke-width="2"/><text x="1000" y="198" text-anchor="middle" class="bl" fill="#10172a">y</text></g><g class="key" style="opacity:0;animation:b20l 12s cubic-bezier(.2,.9,.3,1.3) infinite both"><rect x="1084" y="165" width="60" height="52" rx="12" fill="#b9c6dc" opacity="0.5"/><rect x="1084" y="162" width="60" height="52" rx="12" fill="#ffffff" stroke="#1d99f3" stroke-width="2"/><text x="1114" y="198" text-anchor="middle" class="bl" fill="#10172a">i</text></g><g class="key" style="opacity:0;animation:b23l 12s cubic-bezier(.2,.9,.3,1.3) infinite both"><rect x="1141" y="165" width="60" height="52" rx="12" fill="#b9c6dc" opacity="0.5"/><rect x="1141" y="162" width="60" height="52" rx="12" fill="#ffffff" stroke="#1d99f3" stroke-width="2"/><text x="1171" y="198" text-anchor="middle" class="bl" fill="#10172a">o</text></g><g class="key" style="opacity:0;animation:b26l 12s cubic-bezier(.2,.9,.3,1.3) infinite both"><rect x="713.5" y="209" width="60" height="52" rx="12" fill="#b9c6dc" opacity="0.5"/><rect x="713.5" y="206" width="60" height="52" rx="12" fill="#ffffff" stroke="#1d99f3" stroke-width="2"/><text x="743.5" y="242" text-anchor="middle" class="bl" fill="#10172a">a</text></g><g class="key" style="opacity:0;animation:b29l 12s cubic-bezier(.2,.9,.3,1.3) infinite both"><rect x="770.5" y="209" width="60" height="52" rx="12" fill="#b9c6dc" opacity="0.5"/><rect x="770.5" y="206" width="60" height="52" rx="12" fill="#ffffff" stroke="#1d99f3" stroke-width="2"/><text x="800.5" y="242" text-anchor="middle" class="bl" fill="#10172a">s</text></g><g class="key" style="opacity:0;animation:b32l 12s cubic-bezier(.2,.9,.3,1.3) infinite both"><rect x="827.5" y="209" width="60" height="52" rx="12" fill="#b9c6dc" opacity="0.5"/><rect x="827.5" y="206" width="60" height="52" rx="12" fill="#ffffff" stroke="#1d99f3" stroke-width="2"/><text x="857.5" y="242" text-anchor="middle" class="bl" fill="#10172a">d</text></g><g class="key" style="opacity:0;animation:b35l 12s cubic-bezier(.2,.9,.3,1.3) infinite both"><rect x="884.5" y="209" width="60" height="52" rx="12" fill="#b9c6dc" opacity="0.5"/><rect x="884.5" y="206" width="60" height="52" rx="12" fill="#ffffff" stroke="#1d99f3" stroke-width="2"/><text x="914.5" y="242" text-anchor="middle" class="bl" fill="#10172a">f</text></g><g class="key" style="opacity:0;animation:b38l 12s cubic-bezier(.2,.9,.3,1.3) infinite both"><rect x="941.5" y="209" width="60" height="52" rx="12" fill="#b9c6dc" opacity="0.5"/><rect x="941.5" y="206" width="60" height="52" rx="12" fill="#ffffff" stroke="#1d99f3" stroke-width="2"/><text x="971.5" y="242" text-anchor="middle" class="bl" fill="#10172a">g</text></g><g class="key" style="opacity:0;animation:b41l 12s cubic-bezier(.2,.9,.3,1.3) infinite both"><rect x="998.5" y="209" width="60" height="52" rx="12" fill="#b9c6dc" opacity="0.5"/><rect x="998.5" y="206" width="60" height="52" rx="12" fill="#ffffff" stroke="#1d99f3" stroke-width="2"/><text x="1028.5" y="242" text-anchor="middle" class="bl" fill="#10172a">h</text></g><g class="key" style="opacity:0;animation:b44l 12s cubic-bezier(.2,.9,.3,1.3) infinite both"><rect x="1112.5" y="209" width="60" height="52" rx="12" fill="#b9c6dc" opacity="0.5"/><rect x="1112.5" y="206" width="60" height="52" rx="12" fill="#ffffff" stroke="#1d99f3" stroke-width="2"/><text x="1142.5" y="242" text-anchor="middle" class="bl" fill="#10172a">k</text></g><g class="key" style="opacity:0;animation:b48l 12s cubic-bezier(.2,.9,.3,1.3) infinite both"><rect x="998.5" y="253" width="60" height="52" rx="12" fill="#b9c6dc" opacity="0.5"/><rect x="998.5" y="250" width="60" height="52" rx="12" fill="#ffffff" stroke="#1d99f3" stroke-width="2"/><text x="1028.5" y="286" text-anchor="middle" class="bl" fill="#10172a">b</text></g><g class="key" style="opacity:0;animation:b51l 12s cubic-bezier(.2,.9,.3,1.3) infinite both"><rect x="1055.5" y="253" width="60" height="52" rx="12" fill="#b9c6dc" opacity="0.5"/><rect x="1055.5" y="250" width="60" height="52" rx="12" fill="#ffffff" stroke="#1d99f3" stroke-width="2"/><text x="1085.5" y="286" text-anchor="middle" class="bl" fill="#10172a">n</text></g>
<g class="key" style="animation:e58l 12s cubic-bezier(.2,.9,.3,1.2) infinite both"><circle cx="958" cy="53" r="25" fill="#b9c6dc" opacity="0.5"/><circle cx="958" cy="50" r="25" fill="#f5c542"/><ellipse cx="950" cy="45" rx="3.2" ry="4.6" fill="#3b2a12"/><ellipse cx="966" cy="45" rx="3.2" ry="4.6" fill="#3b2a12"/><path d="M 946 55 q 12 15 24 0 z" fill="#3b2a12"/><circle cx="943" cy="55" r="4" fill="#f7768e" opacity="0.5"/><circle cx="973" cy="55" r="4" fill="#f7768e" opacity="0.5"/></g>
<g class="key" style="animation:g59l 12s cubic-bezier(.2,.9,.3,1.2) infinite both"><rect x="1004" y="23" width="104" height="62" rx="14" fill="#b9c6dc" opacity="0.5"/><rect x="1004" y="20" width="104" height="62" rx="14" fill="url(#gifl)"/><rect x="1014" y="30" width="30" height="17" rx="6" fill="#0b1020" opacity="0.35"/><text x="1029" y="43" text-anchor="middle" class="gt" fill="#ffffff">GIF</text><path d="M 1066 46 l 18 11 l -18 11 z" fill="#ffffff" opacity="0.9"/></g>
<rect x="1136" y="86" width="112" height="64" rx="20" fill="#ffffff" stroke="#cfd9ea" stroke-width="2"/>
<rect x="1136" y="86" width="112" height="64" rx="20" fill="none" stroke="#4f9d2e" stroke-width="2.5" style="opacity:0;animation:h60l 12s linear infinite both"/>
<path d="M 1166.0 106.0 h 52 c 11 0 16 8 18 18 l 2 9 c 1.6 7 -5 11 -10 7 l -9 -8 h -42 l -9 8 c -5 4 -11.6 0 -10 -7 l 2 -9 c 2 -10 7 -18 18 -18 z" fill="#ffffff" stroke="#10172a" stroke-width="2.4" stroke-linejoin="round"/>
<path d="M 1168.5 111.0 h 5 v 5.5 h 5.5 v 5 h -5.5 v 5.5 h -5 v -5.5 h -5.5 v -5 h 5.5 z" fill="#10172a" style="opacity:.55;animation:d61l 12s ease-out infinite both"/>
<circle cx="1213" cy="112.5" r="3.6" fill="#c9831c"/>
<circle cx="1219.5" cy="119" r="3.6" fill="#e0607e"/>
<circle cx="1206.5" cy="119" r="3.6" fill="#1d99f3"/>
<circle cx="1213" cy="125.5" r="3.6" fill="#4f9d2e" class="key" style="animation:a62l 12s ease-out infinite both"/>
<rect width="1280" height="400" fill="url(#scriml)"/>
<rect width="1280" height="400" fill="url(#fadel)"/>
<text x="64" y="186" class="title" fill="#10172a">KBoard</text>
<text x="68" y="232" class="sub" fill="#4a5775">The on-screen keyboard Plasma deserves</text>
<g transform="translate(68,270)">
<rect x="0" width="106" height="36" rx="18" fill="#1d99f3" opacity="0.16"/><text x="53" y="24" text-anchor="middle" class="pill" fill="#1d99f3">Plasma 6</text>
<rect x="116" width="103" height="36" rx="18" fill="#1d99f3" opacity="0.16"/><text x="167.5" y="24" text-anchor="middle" class="pill" fill="#1d99f3">Wayland</text>
<rect x="229" width="132" height="36" rx="18" fill="#1d99f3" opacity="0.16"/><text x="295" y="24" text-anchor="middle" class="pill" fill="#1d99f3">Glide typing</text>
<rect x="371" width="76" height="36" rx="18" fill="#1d99f3" opacity="0.16"/><text x="409" y="24" text-anchor="middle" class="pill" fill="#1d99f3">Voice</text>
<rect x="457" width="116" height="36" rx="18" fill="#1d99f3" opacity="0.16"/><text x="515" y="24" text-anchor="middle" class="pill" fill="#1d99f3">Controller</text>
</g>
</g>
</svg>
